<svg width="38" height="38" viewBox="0 0 38 38" fill="none" xmlns="http://www.w3.org/2000/svg">
<path d="M23.75 21.375V13.6562C23.75 13.5633 23.7282 13.4717 23.6863 13.3888C23.6445 13.3058 23.5837 13.2338 23.509 13.1786C23.4342 13.1234 23.3476 13.0865 23.256 13.0709C23.1644 13.0553 23.0704 13.0614 22.9816 13.0888L15.2629 15.4638C15.1415 15.5011 15.0353 15.5764 14.9599 15.6785C14.8845 15.7806 14.8438 15.9043 14.8438 16.0312V21.9687H16.0312V16.4698L22.5625 14.4602V16.625H20.1875V17.8125H22.5625V19H18.4062V20.1875H22.5625V21.375H23.75Z" fill="#D9991F"/>
<path d="M10.0938 7.71875H16.625V13.6562H17.8125V7.125C17.8125 6.96753 17.7499 6.8165 17.6386 6.70516C17.5272 6.59381 17.3762 6.53125 17.2188 6.53125H16.625V4.75C16.625 4.59253 16.5624 4.44151 16.4511 4.33016C16.3397 4.21881 16.1887 4.15625 16.0312 4.15625H15.4375V2.375C15.4375 2.21753 15.3749 2.06651 15.2636 1.95516C15.1522 1.84381 15.0012 1.78125 14.8438 1.78125H11.875C11.7175 1.78125 11.5665 1.84381 11.4552 1.95516C11.3438 2.06651 11.2812 2.21753 11.2812 2.375V4.15625H10.6875C10.53 4.15625 10.379 4.21881 10.2677 4.33016C10.1563 4.44151 10.0938 4.59253 10.0938 4.75V6.53125H9.5C9.34253 6.53125 9.19151 6.59381 9.08016 6.70516C8.96881 6.8165 8.90625 6.96753 8.90625 7.125V14.25H10.0938V7.71875ZM12.4688 2.96875H14.25V4.15625H12.4688V2.96875ZM11.2812 5.34375H15.4375V6.53125H11.2812V5.34375Z" fill="#D9991F"/>
<path d="M21.375 6.18628L28.5 8.73095V14.25H29.6875V8.3125C29.6875 8.19003 29.6496 8.07056 29.5791 7.97046C29.5085 7.87035 29.4087 7.79452 29.2934 7.75334L27.9062 7.25793V4.11387C27.9062 3.9914 27.8684 3.87193 27.7978 3.77183C27.7273 3.67172 27.6275 3.59589 27.5121 3.55471L26.125 3.05922V1.78125H24.9375V2.63514L23.9496 2.28238C23.86 2.25038 23.7641 2.24039 23.6698 2.25324C23.5755 2.2661 23.4857 2.30141 23.408 2.35622C23.3302 2.41103 23.2667 2.48373 23.2229 2.56819C23.1791 2.65265 23.1563 2.7464 23.1562 2.84154V5.56151L20.9809 4.78459C20.8913 4.75259 20.7953 4.7426 20.701 4.75546C20.6068 4.76831 20.517 4.80363 20.4392 4.85843C20.3614 4.91324 20.298 4.98594 20.2542 5.0704C20.2104 5.15486 20.1875 5.24861 20.1875 5.34375V12.4688H21.375V6.18628ZM24.3438 3.68407L26.7188 4.53224V6.83384L24.3438 5.98559V3.68407Z" fill="#D9991F"/>
<path d="M35.625 35.625V16.0312C35.625 15.8738 35.5624 15.7228 35.4511 15.6114C35.3397 15.5001 35.1887 15.4375 35.0312 15.4375H34.4375V14.25H33.25V15.4375H32.0625V14.25H30.875V15.4375H26.7188C26.5613 15.4375 26.4103 15.5001 26.2989 15.6114C26.1876 15.7228 26.125 15.8738 26.125 16.0312V21.375H27.3125V16.625H34.4375V18.4062H29.0938V19.5938H34.4375V20.7812H32.0625V21.9688H34.4375V23.1562H32.0625V24.3438H34.4375V25.5312H32.0625V26.7188H34.4375V27.9062H31.4688V29.0938H34.4375V30.2812H31.4688V31.4688H34.4375V32.6562H31.4688V33.8438H34.4375V35.625H29.6875V26.7188H30.2812C30.4387 26.7188 30.5897 26.6562 30.7011 26.5448C30.8124 26.4335 30.875 26.2825 30.875 26.125V22.5625C30.875 22.479 30.8574 22.3964 30.8233 22.3202C30.7892 22.2439 30.7394 22.1758 30.6772 22.1201C30.615 22.0644 30.5417 22.0224 30.4622 21.997C30.3826 21.9715 30.2986 21.9632 30.2156 21.9724L19.5281 23.1599C19.3829 23.176 19.2488 23.2452 19.1513 23.354C19.0539 23.4629 19 23.6039 19 23.75V26.125C19 26.2825 19.0626 26.4335 19.1739 26.5448C19.2853 26.6562 19.4363 26.7188 19.5938 26.7188H20.1875V35.625H17.2188V23.75C17.2188 23.5925 17.1562 23.4415 17.0448 23.3302C16.9335 23.2188 16.7825 23.1562 16.625 23.1562H13.6562V22.5625C13.6558 22.1943 13.5414 21.8352 13.3288 21.5346C13.1162 21.234 12.8158 21.0065 12.4688 20.8834V19.5938H11.2812V20.8834C10.9342 21.0065 10.6338 21.234 10.4212 21.5346C10.2086 21.8352 10.0942 22.1943 10.0938 22.5625V23.1562H9.5C9.34253 23.1562 9.19151 23.2188 9.08016 23.3302C8.96881 23.4415 8.90625 23.5925 8.90625 23.75V35.625H3.5625V33.8438H7.125V32.6562H3.5625V31.4688H6.53125V30.2812H3.5625V29.0938H6.53125V27.9062H3.5625V26.7188H7.125V25.5312H3.5625V24.3438H6.53125V23.1562H3.5625V21.9688H8.3125V20.7812H3.5625V19.5938H8.90625V18.4062H3.5625V16.625H11.2812V18.4062H12.4688V16.0312C12.4688 15.8738 12.4062 15.7228 12.2948 15.6114C12.1835 15.5001 12.0325 15.4375 11.875 15.4375H7.71875V14.25H6.53125V15.4375H5.34375V13.0625H4.15625V15.4375H2.96875C2.81128 15.4375 2.66026 15.5001 2.54891 15.6114C2.43756 15.7228 2.375 15.8738 2.375 16.0312V35.625H1.1875V36.8125H36.8125V35.625H35.625ZM20.1875 24.2814L29.6875 23.2259V25.5312H20.1875V24.2814ZM21.375 26.7188H28.5V35.625H21.375V26.7188ZM11.2812 22.5625C11.2812 22.405 11.3438 22.254 11.4552 22.1427C11.5665 22.0313 11.7175 21.9688 11.875 21.9688C12.0325 21.9688 12.1835 22.0313 12.2948 22.1427C12.4062 22.254 12.4688 22.405 12.4688 22.5625V23.1562H11.2812V22.5625ZM10.0938 24.3438H16.0312V35.625H10.0938V24.3438Z" fill="#D9991F"/>
<path d="M23.1562 27.9062H24.3438V29.0938H23.1562V27.9062Z" fill="#D9991F"/>
<path d="M11.875 8.90625H13.0625V10.0938H11.875V8.90625Z" fill="#D9991F"/>
<path d="M11.2812 13.0625H12.4688V14.25H11.2812V13.0625Z" fill="#D9991F"/>
<path d="M14.25 11.2812H15.4375V12.4688H14.25V11.2812Z" fill="#D9991F"/>
<path d="M25.5312 27.9062H26.7188V29.0938H25.5312V27.9062Z" fill="#D9991F"/>
<path d="M23.1562 30.2812H24.3438V31.4688H23.1562V30.2812Z" fill="#D9991F"/>
<path d="M25.5312 30.2812H26.7188V31.4688H25.5312V30.2812Z" fill="#D9991F"/>
<path d="M23.1562 32.6562H24.3438V33.8438H23.1562V32.6562Z" fill="#D9991F"/>
<path d="M25.5312 32.6562H26.7188V33.8438H25.5312V32.6562Z" fill="#D9991F"/>
<path d="M11.2812 26.125H12.4688V33.8438H11.2812V26.125Z" fill="#D9991F"/>
<path d="M13.6562 26.125H14.8438V33.8438H13.6562V26.125Z" fill="#D9991F"/>
<path d="M22.5625 8.90625H23.75V10.0938H22.5625V8.90625Z" fill="#D9991F"/>
<path d="M26.125 10.0938H27.3125V11.2812H26.125V10.0938Z" fill="#D9991F"/>
<path d="M24.9375 13.0625H26.125V14.25H24.9375V13.0625Z" fill="#D9991F"/>
</svg>
